<?xml version="1.0" encoding="utf-8"?>
<!-- Generator: Adobe Illustrator 14.0.0, SVG Export Plug-In . SVG Version: 6.00 Build 43363)  -->
<!DOCTYPE svg PUBLIC "-//W3C//DTD SVG 1.1//EN" "http://www.w3.org/Graphics/SVG/1.1/DTD/svg11.dtd">
<svg version="1.1" id="Layer_1" xmlns="http://www.w3.org/2000/svg" xmlns:xlink="http://www.w3.org/1999/xlink" x="0px" y="0px"
	 width="576px" height="182.5px" viewBox="0 0 576 182.5" enable-background="new 0 0 576 182.5" xml:space="preserve">
<g>
	<g>
		<radialGradient id="SVGID_1_" cx="75.5908" cy="91.2505" r="63.1818" gradientUnits="userSpaceOnUse">
			<stop  offset="0.0303" style="stop-color:#7D89C4"/>
			<stop  offset="0.5515" style="stop-color:#3A58A7"/>
			<stop  offset="1" style="stop-color:#2E3191"/>
		</radialGradient>
		<path fill="url(#SVGID_1_)" d="M54.889,115.442L33.221,59.555c-1.308-3.493-2.729-7.136-4.262-10.936
			C18.684,59.854,12.407,74.817,12.407,91.246c0,15.144,5.333,29.038,14.214,39.922c1.98,0.191,3.794,0.295,5.451,0.295
			C43.963,131.463,50.669,126.686,54.889,115.442z"/>
		<radialGradient id="SVGID_2_" cx="75.5889" cy="91.251" r="63.1816" gradientUnits="userSpaceOnUse">
			<stop  offset="0.0303" style="stop-color:#7D89C4"/>
			<stop  offset="0.5515" style="stop-color:#3A58A7"/>
			<stop  offset="1" style="stop-color:#2E3191"/>
		</radialGradient>
		<path fill="url(#SVGID_2_)" d="M123.663,50.273l-29.093,65.169c-9.462,21.158-18.593,32.479-36.342,36.554
			c5.52,1.574,11.336,2.438,17.361,2.438c34.894,0,63.181-28.291,63.181-63.188C138.77,75.606,133.075,61.308,123.663,50.273z"/>
		<radialGradient id="SVGID_3_" cx="75.5913" cy="91.249" r="63.1785" gradientUnits="userSpaceOnUse">
			<stop  offset="0.0303" style="stop-color:#7D89C4"/>
			<stop  offset="0.5515" style="stop-color:#3A58A7"/>
			<stop  offset="1" style="stop-color:#2E3191"/>
		</radialGradient>
		<path fill="url(#SVGID_3_)" d="M77.888,84.261l9.584-28.283c1.619-4.946,4.242-13.18,7.561-24.847
			c-6.128-1.98-12.659-3.064-19.445-3.064c-4.984,0-9.827,0.597-14.476,1.688c1.672,6.219,3.691,13.2,6.234,21.113L77.888,84.261z"
			/>
	</g>
	<g>
		<g>
			<g>
				<path fill="#2E3191" d="M177.754,69.262c-1.984-5.941,16.689-13.374,13.826-20.752l2.026,0.828
					c0.988,4.182,2.201,8.915,3.741,14.31l6.056,21.577l5.505-18.274c0.992-3.409,22.193-10.07,24.284-18.44l2.026,0.828
					l-22.235,56.035c-7.048,17.723-13.766,24.771-31.378,24.771c-4.075,0-10.359-0.829-13.693-2.365l1.034-13.046
					c3.304,0.657,5.946,0.988,8.143,0.988c6.828,0,10.682-3.083,13.104-10.348L177.754,69.262z"/>
				<path fill="#2E3191" d="M265.713,106.916c-19.16,0-29.507-9.69-29.507-27.082c0-19.928,11.671-32.039,31.705-32.039
					c16.955,0,25.321,7.379,25.321,22.573c0,2.744-0.33,6.383-0.992,10.785h-33.464c-0.114,0.547-0.114,1.099-0.114,1.653
					c0,6.383,4.516,9.135,13.766,9.135c2.828,0,9.982-2.242,12.864-2.653c0,0,2.034,0.817,2.216,0.783l-2.315,14.529
					C278.148,106.145,271.651,106.916,265.713,106.916z M273.305,70.254v-0.44c0-6.053-2.201-9.246-6.276-9.246
					c-4.292,0-7.375,3.41-8.143,9.687H273.305z"/>
				<path fill="#2E3191" d="M314.696,91.284c3.854,0,5.835-1.213,5.835-3.304c0-1.874-2.756-3.524-7.485-6.717
					c-8.477-5.615-13.65-9.356-13.65-17.503c0-10.241,7.815-15.855,23.006-15.855c5.037,0,11.701,0.479,15.917,1.27l2.03,0.825
					l1.319,15.187c-4.623-1.315-9.139-2.197-13.876-2.197c-3.296,0-5.06,1.319-5.06,3.083c0,2.422,2.643,3.631,6.718,6.272
					c8.253,5.288,12.985,9.687,12.985,17.396c0,11.341-8.146,17.176-23.885,17.176c-6.276,0-12.883-0.771-19.376-2.535l-1.43-16.515
					C304.899,89.957,310.4,91.284,314.696,91.284z"/>
				<path fill="#2E3191" d="M376.121,107.022c-17.502,0-27.52-10.237-27.52-27.85c0-19.598,11.777-31.378,31.374-31.378
					c4.513,0,9.58,0.771,15.191,2.312l0.771,16.403c-4.623-1.099-8.367-1.98-11.671-1.98c-8.914,0-13.647,4.953-13.647,13.981
					c0,7.375,4.509,11.446,12.328,11.446c4.075,0,8.037-0.768,11.888-1.866l-2.532,16.951
					C386.358,106.365,380.968,107.022,376.121,107.022z"/>
				<path fill="#2E3191" d="M434.688,47.795c19.482,0,30.382,10.241,30.382,28.294c0,19.267-12.333,30.827-32.366,30.827
					c-19.707,0-30.603-10.241-30.603-28.405C402.101,59.575,414.318,47.795,434.688,47.795z M423.788,78.181
					c0,9.139,2.969,13.54,9.466,13.54c6.607,0,10.127-4.953,10.127-14.529c0-9.91-2.531-14.423-9.469-14.423
					C427.088,62.769,423.788,67.942,423.788,78.181z"/>
				<path fill="#2E3191" d="M474.861,49.338h20.589v6.935c4.402-6.272,9.025-8.584,16.294-8.584c9.028,0,14.86,3.189,17.064,9.576
					c4.292-6.935,9.025-9.576,16.62-9.576c12.773,0,18.164,5.61,18.164,18.163c0,8.037-1.099,21.137-1.434,39.521h-21.021
					c0.988-9.58,1.318-18.936,1.318-27.413c0-9.466-0.878-13.868-5.721-13.868c-7.82,0-9.47,12.545-9.47,38.639v2.643h-20.259
					c0.883-9.687,1.323-18.826,1.323-27.413c0-9.466-0.878-13.868-5.725-13.868c-7.816,0-9.466,12.545-9.466,38.639v2.643h-21.03
					C473.983,87.646,474.861,69.041,474.861,49.338z"/>
			</g>
			<g>
				<linearGradient id="SVGID_4_" gradientUnits="userSpaceOnUse" x1="166.9199" y1="88.9121" x2="233.1914" y2="88.9121">
					<stop  offset="0" style="stop-color:#2E3191"/>
					<stop  offset="1" style="stop-color:#426AB2"/>
				</linearGradient>
				<path fill="url(#SVGID_4_)" d="M175.728,68.437c-1.98-5.941-4.406-12.549-7.265-19.927h23.117
					c0.989,4.186,2.201,8.922,3.741,14.313l6.056,21.581l5.504-18.277c0.992-3.41,2.642-9.246,4.733-17.616h21.577l-22.235,56.038
					c-7.048,17.723-13.761,24.767-31.377,24.767c-4.072,0-7.813-0.547-11.667-1.536l-0.992-13.875
					c3.303,0.661,5.941,0.992,8.146,0.992c6.828,0,10.679-3.083,13.1-10.348L175.728,68.437z"/>
				<linearGradient id="SVGID_5_" gradientUnits="userSpaceOnUse" x1="234.1802" y1="76.5283" x2="291.207" y2="76.5283">
					<stop  offset="0" style="stop-color:#2E3191"/>
					<stop  offset="1" style="stop-color:#426AB2"/>
				</linearGradient>
				<path fill="url(#SVGID_5_)" d="M263.684,106.087c-19.156,0-29.503-9.686-29.503-27.082c0-19.924,11.67-32.035,31.705-32.035
					c16.955,0,25.322,7.379,25.322,22.569c0,2.753-0.331,6.383-0.993,10.789H256.75c-0.11,0.551-0.11,1.099-0.11,1.649
					c0,6.387,4.517,9.14,13.758,9.14c4.954,0,10.021-0.662,15.084-1.871l-2.312,14.53
					C276.122,105.319,269.629,106.087,263.684,106.087z M271.279,69.429v-0.44c0-6.056-2.201-9.249-6.272-9.249
					c-4.295,0-7.375,3.413-8.15,9.689H271.279z"/>
				<linearGradient id="SVGID_6_" gradientUnits="userSpaceOnUse" x1="295.7148" y1="76.5835" x2="340.4092" y2="76.5835">
					<stop  offset="0" style="stop-color:#2E3191"/>
					<stop  offset="1" style="stop-color:#426AB2"/>
				</linearGradient>
				<path fill="url(#SVGID_6_)" d="M312.67,90.455c3.854,0,5.831-1.209,5.831-3.304c0-1.87-2.748-3.52-7.48-6.713
					c-8.478-5.615-13.655-9.359-13.655-17.506c0-10.237,7.819-15.853,23.015-15.853c6.713,0,12.654,0.661,17.938,2.095l1.323,15.19
					c-4.623-1.319-9.135-2.197-13.872-2.197c-3.3,0-5.063,1.315-5.063,3.075c0,2.426,2.643,3.635,6.714,6.276
					c8.261,5.284,12.989,9.69,12.989,17.393c0,11.344-8.143,17.175-23.885,17.175c-6.276,0-12.883-0.768-19.376-2.531l-1.434-16.514
					C302.869,89.136,308.378,90.455,312.67,90.455z"/>
				<linearGradient id="SVGID_7_" gradientUnits="userSpaceOnUse" x1="346.5752" y1="76.5835" x2="393.9121" y2="76.5835">
					<stop  offset="0" style="stop-color:#2E3191"/>
					<stop  offset="1" style="stop-color:#426AB2"/>
				</linearGradient>
				<path fill="url(#SVGID_7_)" d="M374.095,106.197c-17.502,0-27.52-10.237-27.52-27.85c0-19.597,11.777-31.378,31.378-31.378
					c4.509,0,9.572,0.771,15.188,2.312l0.771,16.403c-4.626-1.099-8.367-1.984-11.671-1.984c-8.918,0-13.651,4.957-13.651,13.985
					c0,7.375,4.517,11.45,12.329,11.45c4.078,0,8.04-0.771,11.891-1.87l-2.528,16.951
					C384.336,105.54,378.938,106.197,374.095,106.197z"/>
				<linearGradient id="SVGID_8_" gradientUnits="userSpaceOnUse" x1="400.0742" y1="76.5283" x2="463.043" y2="76.5283">
					<stop  offset="0" style="stop-color:#2E3191"/>
					<stop  offset="1" style="stop-color:#426AB2"/>
				</linearGradient>
				<path fill="url(#SVGID_8_)" d="M432.661,46.97c19.482,0,30.382,10.241,30.382,28.295c0,19.266-12.329,30.822-32.366,30.822
					c-19.707,0-30.603-10.233-30.603-28.401C400.074,58.751,412.292,46.97,432.661,46.97z M421.758,77.355
					c0,9.139,2.974,13.541,9.47,13.541c6.604,0,10.128-4.953,10.128-14.533c0-9.907-2.532-14.419-9.466-14.419
					C425.062,61.944,421.758,67.118,421.758,77.355z"/>
				<linearGradient id="SVGID_9_" gradientUnits="userSpaceOnUse" x1="470.0869" y1="75.7056" x2="561.5703" y2="75.7056">
					<stop  offset="0" style="stop-color:#2E3191"/>
					<stop  offset="1" style="stop-color:#426AB2"/>
				</linearGradient>
				<path fill="url(#SVGID_9_)" d="M472.839,48.51h20.586v6.938c4.405-6.272,9.024-8.584,16.289-8.584
					c9.028,0,14.864,3.193,17.068,9.576c4.292-6.935,9.025-9.576,16.621-9.576c12.769,0,18.167,5.611,18.167,18.164
					c0,8.036-1.103,21.136-1.434,39.521h-21.025c0.992-9.58,1.322-18.939,1.322-27.413c0-9.466-0.882-13.872-5.729-13.872
					c-7.816,0-9.466,12.553-9.466,38.643v2.643h-20.258c0.882-9.687,1.322-18.825,1.322-27.413c0-9.466-0.882-13.872-5.725-13.872
					c-7.813,0-9.47,12.553-9.47,38.643v2.643h-21.022C471.957,86.821,472.839,68.217,472.839,48.51z"/>
			</g>
		</g>
		<g>
			<path fill="#2E3191" d="M228.14,123.2h-5.512v5.341h6.166v1.604h-8.025v-14.814h7.709v1.604h-5.85v4.684h5.512V123.2z"/>
			<path fill="#2E3191" d="M231.12,122.387c0-1.122-0.022-2-0.083-2.878h1.646l0.106,1.756h0.042
				c0.505-0.988,1.688-1.977,3.375-1.977c1.418,0,3.612,0.878,3.612,4.527v6.33h-1.859v-6.132c0-1.715-0.612-3.145-2.365-3.145
				c-1.201,0-2.152,0.901-2.49,1.978c-0.083,0.243-0.125,0.573-0.125,0.9v6.398h-1.859V122.387z"/>
			<path fill="#2E3191" d="M244.995,116.958v2.551h2.661v1.471h-2.661v5.736c0,1.319,0.357,2.064,1.396,2.064
				c0.505,0,0.802-0.042,1.076-0.129l0.083,1.471c-0.357,0.134-0.927,0.263-1.646,0.263c-0.867,0-1.563-0.308-2.007-0.813
				c-0.505-0.593-0.718-1.536-0.718-2.79v-5.802h-1.582v-1.471h1.582v-1.98L244.995,116.958z"/>
			<path fill="#2E3191" d="M249.751,122.827c0-1.254-0.023-2.33-0.083-3.318h1.623l0.083,2.109h0.065
				c0.464-1.429,1.604-2.33,2.851-2.33c0.19,0,0.338,0.022,0.506,0.042v1.824c-0.19-0.041-0.38-0.041-0.631-0.041
				c-1.312,0-2.239,1.011-2.494,2.459c-0.042,0.267-0.061,0.593-0.061,0.901v5.672h-1.859V122.827z"/>
			<path fill="#2E3191" d="M257.479,125.177c0.042,2.615,1.627,3.691,3.505,3.691c1.331,0,2.156-0.24,2.829-0.548l0.338,1.384
				c-0.654,0.308-1.794,0.681-3.421,0.681c-3.144,0-5.026-2.175-5.026-5.383c0-3.209,1.817-5.714,4.794-5.714
				c3.356,0,4.223,3.033,4.223,4.987c0,0.396-0.019,0.681-0.061,0.901H257.479z M262.927,123.793
				c0.022-1.209-0.487-3.121-2.578-3.121c-1.901,0-2.703,1.779-2.851,3.121H262.927z"/>
			<path fill="#2E3191" d="M269.268,116.958v2.551h2.657v1.471h-2.657v5.736c0,1.319,0.357,2.064,1.391,2.064
				c0.506,0,0.802-0.042,1.076-0.129l0.087,1.471c-0.361,0.134-0.932,0.263-1.65,0.263c-0.863,0-1.563-0.308-2.003-0.813
				c-0.509-0.593-0.719-1.536-0.719-2.79v-5.802h-1.585v-1.471h1.585v-1.98L269.268,116.958z"/>
			<path fill="#2E3191" d="M274.925,125.177c0.045,2.615,1.627,3.691,3.509,3.691c1.327,0,2.151-0.24,2.828-0.548l0.338,1.384
				c-0.654,0.308-1.794,0.681-3.421,0.681c-3.147,0-5.025-2.175-5.025-5.383c0-3.209,1.817-5.714,4.793-5.714
				c3.357,0,4.224,3.033,4.224,4.987c0,0.396-0.023,0.681-0.064,0.901H274.925z M280.376,123.793
				c0.019-1.209-0.486-3.121-2.577-3.121c-1.901,0-2.703,1.779-2.852,3.121H280.376z"/>
			<path fill="#2E3191" d="M284.474,122.387c0-1.122-0.019-2-0.083-2.878h1.646l0.106,1.756h0.042
				c0.506-0.988,1.692-1.977,3.38-1.977c1.414,0,3.611,0.878,3.611,4.527v6.33h-1.859v-6.132c0-1.715-0.611-3.145-2.364-3.145
				c-1.205,0-2.155,0.901-2.494,1.978c-0.083,0.243-0.125,0.573-0.125,0.9v6.398h-1.859V122.387z"/>
			<path fill="#2E3191" d="M298.266,116.517c0,0.662-0.444,1.19-1.182,1.19c-0.677,0-1.118-0.528-1.118-1.19
				c0-0.657,0.464-1.209,1.16-1.209C297.802,115.308,298.266,115.836,298.266,116.517z M296.198,130.146v-10.637h1.858v10.637
				H296.198z"/>
			<path fill="#2E3191" d="M301.14,122.387c0-1.122-0.042-2-0.083-2.878h1.627l0.083,1.733h0.065
				c0.569-1.012,1.521-1.954,3.228-1.954c1.376,0,2.429,0.878,2.873,2.133h0.042c0.315-0.616,0.737-1.057,1.163-1.388
				c0.612-0.482,1.267-0.745,2.235-0.745c1.373,0,3.38,0.924,3.38,4.615v6.242h-1.817v-6.003c0-2.064-0.737-3.273-2.216-3.273
				c-1.076,0-1.878,0.813-2.217,1.737c-0.083,0.285-0.147,0.616-0.147,0.966v6.573h-1.817v-6.375c0-1.692-0.719-2.901-2.133-2.901
				c-1.141,0-2.004,0.966-2.3,1.936c-0.106,0.262-0.148,0.615-0.148,0.942v6.398h-1.817V122.387z"/>
			<path fill="#2E3191" d="M319.79,125.177c0.046,2.615,1.627,3.691,3.509,3.691c1.327,0,2.151-0.24,2.828-0.548l0.339,1.384
				c-0.654,0.308-1.795,0.681-3.422,0.681c-3.147,0-5.025-2.175-5.025-5.383c0-3.209,1.817-5.714,4.794-5.714
				c3.356,0,4.224,3.033,4.224,4.987c0,0.396-0.023,0.681-0.064,0.901H319.79z M325.241,123.793c0.02-1.209-0.486-3.121-2.577-3.121
				c-1.9,0-2.703,1.779-2.852,3.121H325.241z"/>
			<path fill="#2E3191" d="M329.34,122.387c0-1.122-0.023-2-0.084-2.878h1.646l0.106,1.756h0.041
				c0.506-0.988,1.688-1.977,3.376-1.977c1.418,0,3.611,0.878,3.611,4.527v6.33h-1.858v-6.132c0-1.715-0.612-3.145-2.365-3.145
				c-1.201,0-2.151,0.901-2.489,1.978c-0.084,0.243-0.126,0.573-0.126,0.9v6.398h-1.858V122.387z"/>
			<path fill="#2E3191" d="M343.215,116.958v2.551h2.661v1.471h-2.661v5.736c0,1.319,0.357,2.064,1.396,2.064
				c0.506,0,0.802-0.042,1.076-0.129l0.083,1.471c-0.357,0.134-0.928,0.263-1.646,0.263c-0.867,0-1.563-0.308-2.008-0.813
				c-0.505-0.593-0.718-1.536-0.718-2.79v-5.802h-1.582v-1.471h1.582v-1.98L343.215,116.958z"/>
			<path fill="#2E3191" d="M357.091,124.739c0,3.931-2.639,5.646-5.087,5.646c-2.748,0-4.899-2.11-4.899-5.471
				c0-3.539,2.258-5.626,5.067-5.626C355.106,119.288,357.091,121.508,357.091,124.739z M349.005,124.846
				c0,2.33,1.266,4.091,3.083,4.091c1.771,0,3.102-1.737,3.102-4.133c0-1.802-0.862-4.067-3.06-4.067
				C349.955,120.736,349.005,122.847,349.005,124.846z"/>
			<path fill="#2E3191" d="M371.327,123.2h-5.512v5.341h6.166v1.604h-8.025v-14.814h7.71v1.604h-5.851v4.684h5.512V123.2z"/>
			<path fill="#2E3191" d="M374.057,128.188c0.57,0.354,1.54,0.749,2.468,0.749c1.33,0,1.965-0.681,1.965-1.582
				c0-0.924-0.528-1.406-1.878-1.935c-1.858-0.703-2.726-1.737-2.726-3.011c0-1.715,1.354-3.121,3.527-3.121
				c1.034,0,1.943,0.285,2.49,0.657l-0.44,1.407c-0.403-0.263-1.141-0.635-2.091-0.635c-1.099,0-1.692,0.657-1.692,1.448
				c0,0.878,0.594,1.273,1.924,1.824c1.753,0.681,2.68,1.604,2.68,3.186c0,1.89-1.414,3.209-3.801,3.209
				c-1.118,0-2.152-0.308-2.87-0.745L374.057,128.188z"/>
			<path fill="#2E3191" d="M382.671,122.979c0-1.361-0.042-2.46-0.084-3.471h1.646l0.106,1.82h0.042
				c0.741-1.296,1.965-2.041,3.634-2.041c2.49,0,4.35,2.175,4.35,5.383c0,3.824-2.263,5.714-4.669,5.714
				c-1.35,0-2.531-0.616-3.144-1.669h-0.042v5.778h-1.84V122.979z M384.511,125.815c0,0.285,0.02,0.547,0.084,0.791
				c0.338,1.342,1.456,2.262,2.786,2.262c1.966,0,3.103-1.669,3.103-4.109c0-2.11-1.076-3.935-3.038-3.935
				c-1.27,0-2.471,0.924-2.809,2.376c-0.065,0.239-0.126,0.528-0.126,0.768V125.815z"/>
			<path fill="#2E3191" d="M403.94,124.739c0,3.931-2.642,5.646-5.09,5.646c-2.745,0-4.9-2.11-4.9-5.471
				c0-3.539,2.262-5.626,5.067-5.626C401.956,119.288,403.94,121.508,403.94,124.739z M395.851,124.846
				c0,2.33,1.27,4.091,3.083,4.091c1.775,0,3.106-1.737,3.106-4.133c0-1.802-0.867-4.067-3.064-4.067
				C396.802,120.736,395.851,122.847,395.851,124.846z"/>
			<path fill="#2E3191" d="M406.286,122.827c0-1.254-0.02-2.33-0.084-3.318h1.627l0.084,2.109h0.064
				c0.464-1.429,1.604-2.33,2.852-2.33c0.186,0,0.334,0.022,0.506,0.042v1.824c-0.19-0.041-0.381-0.041-0.636-0.041
				c-1.308,0-2.238,1.011-2.489,2.459c-0.042,0.267-0.065,0.593-0.065,0.901v5.672h-1.858V122.827z"/>
			<path fill="#2E3191" d="M415.938,116.958v2.551h2.66v1.471h-2.66v5.736c0,1.319,0.357,2.064,1.395,2.064
				c0.506,0,0.803-0.042,1.076-0.129l0.084,1.471c-0.357,0.134-0.928,0.263-1.646,0.263c-0.867,0-1.563-0.308-2.007-0.813
				c-0.506-0.593-0.719-1.536-0.719-2.79v-5.802h-1.581v-1.471h1.581v-1.98L415.938,116.958z"/>
			<path fill="#2E3191" d="M421.599,125.177c0.046,2.615,1.627,3.691,3.509,3.691c1.327,0,2.151-0.24,2.828-0.548l0.339,1.384
				c-0.654,0.308-1.795,0.681-3.422,0.681c-3.147,0-5.025-2.175-5.025-5.383c0-3.209,1.817-5.714,4.794-5.714
				c3.356,0,4.224,3.033,4.224,4.987c0,0.396-0.023,0.681-0.065,0.901H421.599z M427.05,123.793c0.02-1.209-0.486-3.121-2.577-3.121
				c-1.901,0-2.703,1.779-2.852,3.121H427.05z"/>
			<path fill="#2E3191" d="M430.894,128.188c0.57,0.354,1.543,0.749,2.471,0.749c1.33,0,1.965-0.681,1.965-1.582
				c0-0.924-0.528-1.406-1.881-1.935c-1.859-0.703-2.723-1.737-2.723-3.011c0-1.715,1.35-3.121,3.524-3.121
				c1.034,0,1.942,0.285,2.494,0.657l-0.445,1.407c-0.399-0.263-1.141-0.635-2.091-0.635c-1.099,0-1.688,0.657-1.688,1.448
				c0,0.878,0.589,1.273,1.92,1.824c1.752,0.681,2.684,1.604,2.684,3.186c0,1.89-1.414,3.209-3.802,3.209
				c-1.121,0-2.155-0.308-2.874-0.745L430.894,128.188z"/>
			<path fill="#2E3191" d="M453.979,129.682c-0.657,0.354-2.029,0.703-3.76,0.703c-4.014,0-7.01-2.635-7.01-7.516
				c0-4.657,3.019-7.778,7.433-7.778c1.752,0,2.893,0.396,3.379,0.658l-0.464,1.559c-0.677-0.35-1.669-0.612-2.851-0.612
				c-3.338,0-5.555,2.221-5.555,6.109c0,3.646,2.004,5.957,5.448,5.957c1.141,0,2.28-0.243,3.019-0.616L453.979,129.682z"/>
			<path fill="#2E3191" d="M465.259,124.739c0,3.931-2.642,5.646-5.09,5.646c-2.745,0-4.9-2.11-4.9-5.471
				c0-3.539,2.262-5.626,5.067-5.626C463.274,119.288,465.259,121.508,465.259,124.739z M457.169,124.846
				c0,2.33,1.271,4.091,3.083,4.091c1.775,0,3.106-1.737,3.106-4.133c0-1.802-0.867-4.067-3.064-4.067
				C458.12,120.736,457.169,122.847,457.169,124.846z"/>
			<path fill="#2E3191" d="M467.604,122.387c0-1.122-0.042-2-0.084-2.878h1.627l0.084,1.733h0.064
				c0.57-1.012,1.521-1.954,3.228-1.954c1.376,0,2.43,0.878,2.874,2.133h0.042c0.315-0.616,0.737-1.057,1.163-1.388
				c0.612-0.482,1.266-0.745,2.235-0.745c1.372,0,3.38,0.924,3.38,4.615v6.242H480.4v-6.003c0-2.064-0.737-3.273-2.216-3.273
				c-1.076,0-1.879,0.813-2.217,1.737c-0.084,0.285-0.148,0.616-0.148,0.966v6.573h-1.816v-6.375c0-1.692-0.719-2.901-2.133-2.901
				c-1.141,0-2.004,0.966-2.3,1.936c-0.106,0.262-0.148,0.615-0.148,0.942v6.398h-1.817V122.387z"/>
			<path fill="#2E3191" d="M493.774,127.222c0,1.122,0.019,2.087,0.083,2.924h-1.646l-0.106-1.737h-0.042
				c-0.464,0.855-1.563,1.977-3.38,1.977c-1.604,0-3.523-0.942-3.523-4.657v-6.219h1.854v5.865c0,2.022,0.612,3.406,2.281,3.406
				c1.247,0,2.113-0.9,2.452-1.779c0.103-0.262,0.167-0.615,0.167-0.988v-6.504h1.859V127.222z"/>
			<path fill="#2E3191" d="M496.861,122.387c0-1.122-0.023-2-0.084-2.878h1.646l0.106,1.756h0.041
				c0.506-0.988,1.688-1.977,3.376-1.977c1.418,0,3.611,0.878,3.611,4.527v6.33H503.7v-6.132c0-1.715-0.612-3.145-2.365-3.145
				c-1.201,0-2.151,0.901-2.489,1.978c-0.084,0.243-0.126,0.573-0.126,0.9v6.398h-1.858V122.387z"/>
			<path fill="#2E3191" d="M510.653,116.517c0,0.662-0.445,1.19-1.183,1.19c-0.677,0-1.122-0.528-1.122-1.19
				c0-0.657,0.464-1.209,1.164-1.209C510.186,115.308,510.653,115.836,510.653,116.517z M508.581,130.146v-10.637h1.859v10.637
				H508.581z"/>
			<path fill="#2E3191" d="M520.811,129.769c-0.486,0.243-1.563,0.616-2.935,0.616c-3.083,0-5.091-2.175-5.091-5.429
				c0-3.273,2.156-5.668,5.493-5.668c1.096,0,2.068,0.285,2.574,0.57l-0.422,1.471c-0.445-0.239-1.141-0.505-2.152-0.505
				c-2.345,0-3.611,1.824-3.611,4.021c0,2.464,1.521,3.98,3.547,3.98c1.057,0,1.753-0.267,2.281-0.506L520.811,129.769z"/>
			<path fill="#2E3191" d="M530.166,127.595c0,0.924,0.042,1.824,0.148,2.551h-1.669l-0.145-1.342h-0.064
				c-0.57,0.836-1.669,1.581-3.125,1.581c-2.072,0-3.125-1.517-3.125-3.053c0-2.573,2.193-3.98,6.144-3.957v-0.221
				c0-0.855-0.232-2.46-2.323-2.437c-0.969,0-1.965,0.285-2.68,0.79l-0.422-1.296c0.844-0.551,2.087-0.924,3.376-0.924
				c3.124,0,3.885,2.22,3.885,4.33V127.595z M528.372,124.717c-2.026-0.046-4.33,0.327-4.33,2.395c0,1.273,0.806,1.848,1.733,1.848
				c1.35,0,2.216-0.882,2.513-1.783c0.064-0.22,0.084-0.437,0.084-0.615V124.717z"/>
			<path fill="#2E3191" d="M540.453,129.75c-0.422,0.217-1.392,0.593-2.661,0.616l-0.528,0.878c0.783,0.151,1.479,0.703,1.479,1.604
				c0,1.319-1.057,1.825-2.197,1.825c-0.482,0-1.076-0.133-1.475-0.376l0.315-0.989c0.315,0.198,0.737,0.309,1.159,0.309
				c0.486,0,0.908-0.175,0.908-0.703c-0.019-0.57-0.653-0.813-1.646-0.924l0.886-1.692c-2.597-0.33-4.266-2.417-4.266-5.359
				c0-3.255,2.155-5.649,5.493-5.649c1.095,0,2.068,0.285,2.574,0.57l-0.422,1.471c-0.445-0.239-1.141-0.505-2.152-0.505
				c-2.346,0-3.611,1.806-3.611,4.021c0,2.44,1.521,3.958,3.547,3.958c1.057,0,1.771-0.263,2.281-0.506L540.453,129.75z"/>
			<path fill="#2E3191" d="M549.789,127.595c0,0.924,0.042,1.824,0.148,2.551h-1.669l-0.145-1.342h-0.064
				c-0.57,0.836-1.669,1.581-3.125,1.581c-2.071,0-3.125-1.517-3.125-3.053c0-2.573,2.194-3.98,6.144-3.957v-0.221
				c0-0.855-0.231-2.46-2.322-2.437c-0.97,0-1.966,0.285-2.681,0.79l-0.422-1.296c0.844-0.551,2.087-0.924,3.376-0.924
				c3.125,0,3.885,2.22,3.885,4.33V127.595z M543.498,117.684c-0.042-1.429,0.528-2.284,1.437-2.284
				c0.464,0,0.821,0.217,1.308,0.482c0.339,0.198,0.636,0.373,0.886,0.373c0.339,0,0.552-0.198,0.594-0.924h0.992
				c0.022,1.452-0.445,2.22-1.438,2.22c-0.464,0-0.862-0.221-1.308-0.46c-0.422-0.266-0.653-0.396-0.908-0.396
				c-0.339,0-0.506,0.373-0.548,0.988H543.498z M547.995,124.717c-2.026-0.046-4.33,0.327-4.33,2.395
				c0,1.273,0.806,1.848,1.733,1.848c1.35,0,2.217-0.882,2.513-1.783c0.065-0.22,0.084-0.437,0.084-0.615V124.717z"/>
			<path fill="#2E3191" d="M562.042,124.739c0,3.931-2.643,5.646-5.091,5.646c-2.744,0-4.899-2.11-4.899-5.471
				c0-3.539,2.262-5.626,5.067-5.626C560.058,119.288,562.042,121.508,562.042,124.739z M553.952,124.846
				c0,2.33,1.27,4.091,3.083,4.091c1.775,0,3.105-1.737,3.105-4.133c0-1.802-0.866-4.067-3.063-4.067
				C554.902,120.736,553.952,122.847,553.952,124.846z"/>
		</g>
	</g>
</g>
</svg>
